<svg width="24" height="24" viewBox="0 0 24 24" fill="none" xmlns="http://www.w3.org/2000/svg">
<path fill-rule="evenodd" clip-rule="evenodd" d="M21.5273 11.546L2.46161 11.3502C2.19199 11.3475 1.97516 11.126 1.97785 10.8564C1.98054 10.5868 2.20201 10.3697 2.47163 10.3724L21.5373 10.5682C21.8069 10.5711 22.024 10.7926 22.0213 11.0622C22.0186 11.3318 21.7969 11.5489 21.5273 11.546ZM21.011 14.2297C20.9859 16.6558 18.6695 18.606 15.8471 18.5769L7.99656 18.4962C5.17396 18.4672 2.89819 16.47 2.92287 14.0439L2.94047 12.3331L21.0284 12.5186L21.011 14.2297ZM19.4943 21.1299C19.5429 21.2164 19.5554 21.3162 19.5285 21.4108C19.5023 21.5036 19.4415 21.5806 19.3537 21.6295C19.2694 21.6777 19.1711 21.6899 19.0775 21.664C18.9831 21.6376 18.9044 21.576 18.8558 21.4897L17.6392 19.334C17.8836 19.2699 18.1217 19.1927 18.3522 19.1032L19.4943 21.1299ZM5.09159 21.3487C5.04147 21.4335 4.9613 21.4936 4.86645 21.5178C4.77259 21.542 4.67456 21.5276 4.58779 21.4763C4.50419 21.4274 4.44503 21.3492 4.42083 21.2555C4.3959 21.1604 4.41032 21.061 4.46092 20.9754L5.61347 19.024C5.84545 19.1135 6.08476 19.1907 6.33043 19.255L5.09159 21.3487ZM4.19765 8.92331C4.55894 8.92722 4.87305 9.12718 5.03927 9.421L3.34625 9.40364C3.51859 9.11324 3.83661 8.91964 4.19765 8.92331ZM7.13856 8.22029C7.67756 8.22567 8.1117 8.66884 8.10632 9.20809C8.10534 9.29242 8.09434 9.37431 8.07332 9.45229L6.17863 9.43273C6.15907 9.35427 6.14979 9.27238 6.15076 9.18804C6.15639 8.6488 6.59956 8.21467 7.13856 8.22029ZM16.9315 5.38742L15.0048 5.36762C15.1023 4.71618 15.5966 4.6404 15.9757 4.64431C16.3549 4.64798 16.8477 4.73402 16.9315 5.38742ZM21.5473 9.5904L20.8143 9.58307L20.8727 3.87553C20.8805 3.11995 20.6119 2.40642 20.1178 1.8684C19.6172 1.31595 18.9406 1.00771 18.2131 1.00013C16.7675 0.985466 15.5721 2.18838 15.4986 3.70418C14.4369 3.89191 14.028 4.74307 14.0109 5.55022C14.0065 5.75922 14.0842 5.95673 14.2297 6.10658C14.3751 6.25691 14.5714 6.341 14.7816 6.3432L17.1346 6.36715C17.3451 6.36935 17.5429 6.28942 17.6917 6.14227C17.8399 5.99535 17.9217 5.79931 17.9217 5.59007C17.9208 4.78462 17.5306 3.92662 16.4773 3.71542C16.5419 2.73838 17.2952 1.96862 18.2031 1.97791C18.6551 1.98255 19.0777 2.17689 19.3955 2.52742C19.7228 2.88407 19.9003 3.35927 19.8949 3.86551L19.8365 9.57304L9.06601 9.46231C9.07701 9.38164 9.08312 9.30024 9.08385 9.21811C9.0951 8.13987 8.22683 7.25351 7.14859 7.24251C6.3693 7.23444 5.69023 7.68593 5.36952 8.34398C5.04636 8.09807 4.64425 7.95018 4.20792 7.94578C3.29419 7.93624 2.51832 8.55835 2.29612 9.40462C1.57379 9.48847 1.0079 10.1003 1.00007 10.8464C0.993719 11.4836 1.39656 12.0317 1.96367 12.2392L1.94534 14.0339C1.92579 15.9396 3.03801 17.6282 4.72761 18.6011L3.61905 20.478C3.43523 20.7889 3.38365 21.1524 3.4741 21.501C3.56405 21.8481 3.7843 22.139 4.09083 22.3184C4.39932 22.502 4.76061 22.5543 5.1087 22.4653C5.45703 22.3763 5.74987 22.1566 5.93321 21.8464L7.35759 19.4393C7.56414 19.4601 7.77412 19.4718 7.9863 19.474L15.8371 19.5547C16.1021 19.5574 16.3639 19.5452 16.6206 19.5185L18.0041 21.97C18.1813 22.2839 18.4693 22.5098 18.8157 22.6061C18.9308 22.6379 19.0474 22.6542 19.1635 22.6555C19.3965 22.6579 19.6267 22.599 19.8331 22.4819C20.1467 22.3071 20.3723 22.0209 20.4696 21.6757C20.5671 21.3289 20.5236 20.9646 20.3459 20.6498L19.2361 18.6796C20.8773 17.7302 21.9697 16.0992 21.9888 14.2397L22.0071 12.445C22.5782 12.249 22.9925 11.7095 22.9991 11.0722C23.0074 10.2634 22.3562 9.59896 21.5473 9.5904Z" fill="current"/>
</svg>
