<svg width="24" height="24" viewBox="0 0 24 24" fill="none" xmlns="http://www.w3.org/2000/svg">
<path fill-rule="evenodd" clip-rule="evenodd" d="M1.97778 18.6H22.0222V16.6444H1.97778V18.6ZM20.5556 21.8592C20.5556 21.9386 20.5316 21.9953 20.513 22.0222H19.8648C19.8462 21.9953 19.8222 21.9386 19.8222 21.8592V19.5778H20.5556V21.8592ZM4.17778 21.8592C4.17778 21.9386 4.15382 21.9953 4.13524 22.0222H3.48698C3.4684 21.9953 3.44444 21.9386 3.44444 21.8592V19.5778H4.17778V21.8592ZM3.8072 12.9812L3.84093 12.9792C3.87051 12.9775 3.9018 12.9778 3.93333 12.9778H20.0667C20.098 12.9778 20.1295 12.9773 20.1591 12.9792L20.1974 12.9817C21.206 13.0338 22.0222 13.6786 22.0222 14.43V15.6667H1.97778V14.43C1.97778 13.6784 2.79422 13.0335 3.8072 12.9812ZM5.88889 10.5333V9.8C5.88889 9.26076 6.32742 8.82222 6.86667 8.82222H9.31111C9.85036 8.82222 10.2889 9.26076 10.2889 9.8V10.5333C10.2889 11.0726 9.85036 11.5111 9.31111 11.5111H6.86667C6.32742 11.5111 5.88889 11.0726 5.88889 10.5333ZM13.7111 10.2444V10.0889C13.7111 9.39056 14.2794 8.82222 14.9778 8.82222H16.8444C17.5428 8.82222 18.1111 9.39056 18.1111 10.0889V10.2444C18.1111 10.9428 17.5428 11.5111 16.8444 11.5111H14.9778C14.2794 11.5111 13.7111 10.9428 13.7111 10.2444ZM4.3 2.7556C4.3 2.32684 4.64907 1.97778 5.07782 1.97778H18.9222C19.3509 1.97778 19.7 2.32684 19.7 2.7556V12H18.2387C18.756 11.5884 19.0889 10.955 19.0889 10.2444V10.0889C19.0889 8.85131 18.082 7.84444 16.8444 7.84444H14.9778C13.7402 7.84444 12.7333 8.85131 12.7333 10.0889V10.2444C12.7333 10.955 13.0663 11.5884 13.5835 12H10.6003C11.0078 11.6414 11.2667 11.1176 11.2667 10.5333V9.8C11.2667 8.72176 10.3894 7.84444 9.31111 7.84444H6.86667C5.78842 7.84444 4.91111 8.72176 4.91111 9.8V10.5333C4.91111 11.1176 5.16998 11.6414 5.57747 12H4.3V2.7556ZM20.6778 12.055V2.7556C20.6778 1.7876 19.8902 1 18.9222 1H5.07782C4.10982 1 3.32222 1.7876 3.32222 2.7556V12.0552C1.98829 12.2897 1 13.2652 1 14.43V18.7007C1 19.1842 1.43853 19.5778 1.97778 19.5778H2.46667V21.8592C2.46667 22.4884 2.9052 23 3.44444 23H4.17778C4.71702 23 5.15556 22.4884 5.15556 21.8592V19.5778H18.8444V21.8592C18.8444 22.4884 19.283 23 19.8222 23H20.5556C21.0948 23 21.5333 22.4884 21.5333 21.8592V19.5778H22.0222C22.5615 19.5778 23 19.1842 23 18.7007V14.43C23 13.2645 22.01 12.2882 20.6778 12.055Z" fill="current"/>
</svg>
