<svg width="24" height="24" viewBox="0 0 24 24" fill="none" xmlns="http://www.w3.org/2000/svg">
<g clip-path="url(#clip0)">
<path fill-rule="evenodd" clip-rule="evenodd" d="M20.1111 20.8786C20.1111 20.8639 20.1079 20.85 20.1067 20.8356C20.1228 20.6647 20.0502 20.4906 19.8987 20.3865L17.7092 18.8864C17.4865 18.7338 17.1819 18.7905 17.0296 19.0135C16.8769 19.2362 16.9336 19.5402 17.1563 19.693L18.1729 20.3897H4.9382L5.95484 19.693C6.17753 19.5402 6.23424 19.2362 6.08147 19.0135C5.92942 18.7905 5.6246 18.7338 5.40191 18.8864L3.21242 20.3865C3.06087 20.4906 2.98827 20.6647 3.0044 20.8356C3.00318 20.85 3 20.8639 3 20.8786C3 20.8932 3.00318 20.9072 3.0044 20.9214C2.98827 21.0925 3.06087 21.2665 3.21242 21.3706L5.40191 22.8708C5.48649 22.9287 5.58256 22.9564 5.67789 22.9564C5.83384 22.9564 5.98711 22.882 6.08147 22.7437C6.23424 22.521 6.17753 22.2169 5.95484 22.0641L4.9382 21.3675H18.1729L17.1563 22.0641C16.9336 22.2169 16.8769 22.521 17.0296 22.7437C17.124 22.882 17.2773 22.9564 17.4332 22.9564C17.5286 22.9564 17.6246 22.9287 17.7092 22.8708L19.8987 21.3706C20.0502 21.2665 20.1228 21.0925 20.1067 20.9214C20.1079 20.9072 20.1111 20.8932 20.1111 20.8786ZM11.5556 9.38968C11.1512 9.38968 10.8222 9.71871 10.8222 10.123C10.8222 10.5273 11.1512 10.8564 11.5556 10.8564C11.9599 10.8564 12.2889 10.5273 12.2889 10.123C12.2889 9.71871 11.9599 9.38968 11.5556 9.38968ZM11.5556 11.8341C10.6122 11.8341 9.84444 11.0666 9.84444 10.123C9.84444 9.17946 10.6122 8.41191 11.5556 8.41191C12.4989 8.41191 13.2667 9.17946 13.2667 10.123C13.2667 11.0666 12.4989 11.8341 11.5556 11.8341ZM4.98196 6.57857H18.1086L11.9217 2.11722C11.6634 1.93095 11.3167 1.93193 11.0591 2.12088L4.98196 6.57857ZM10.3333 17.5786H12.7778V13.9119H10.3333V17.5786ZM13.7556 17.5786H18.6444C18.9141 17.5786 19.1333 17.3593 19.1333 17.0897V7.69299C19.1333 7.64679 19.1289 7.60108 19.1204 7.55635H3.98951C3.98193 7.59913 3.97778 7.64264 3.97778 7.68664V17.0897C3.97778 17.3593 4.19704 17.5786 4.46667 17.5786H9.35556V13.9119C9.35556 13.3727 9.79409 12.9341 10.3333 12.9341H12.7778C13.317 12.9341 13.7556 13.3727 13.7556 13.9119V17.5786ZM18.6444 18.5563H4.46667C3.6578 18.5563 3 17.8985 3 17.0897V7.68664C3 7.14373 3.26131 6.62795 3.69911 6.30699L10.481 1.33231C11.0811 0.892306 11.8902 0.888884 12.4937 1.32424L19.401 6.30504C19.8456 6.62599 20.1111 7.14471 20.1111 7.69299V17.0897C20.1111 17.8985 19.4533 18.5563 18.6444 18.5563Z" fill="current"/>
</g>
<defs>
<clipPath id="clip0">
<rect width="17.875" height="22" fill="white" transform="translate(3 1)"/>
</clipPath>
</defs>
</svg>
