<svg width="24" height="24" viewBox="0 0 24 24" fill="none" xmlns="http://www.w3.org/2000/svg">
<g clip-path="url(#clip0)">
<path fill-rule="evenodd" clip-rule="evenodd" d="M20.2857 14.3571V10.1667H14.7857C13.6305 10.1667 12.6905 11.1066 12.6905 12.2619V16.4524H18.1905C19.3457 16.4524 20.2857 15.5124 20.2857 14.3571ZM11.6429 16.4524V12.2619C11.6429 10.5289 13.0527 9.11905 14.7857 9.11905H20.2857V4.14286C20.2857 2.9876 19.3457 2.04762 18.1905 2.04762H12.6905V7.02381C12.6905 8.75683 11.2806 10.1667 9.54762 10.1667H4.04762V14.3571C4.04762 15.5124 4.9876 16.4524 6.14286 16.4524H11.6429ZM4.04762 4.14286V9.11905H9.54762C10.7029 9.11905 11.6429 8.17907 11.6429 7.02381V2.04762H6.14286C4.9876 2.04762 4.04762 2.9876 4.04762 4.14286ZM21.3333 4.14286V14.3571C21.3333 16.0902 19.9235 17.5 18.1905 17.5H6.14286C4.40983 17.5 3 16.0902 3 14.3571V4.14286C3 2.40983 4.40983 1 6.14286 1H18.1905C19.9235 1 21.3333 2.40983 21.3333 4.14286ZM21.3286 20.7277C21.3299 20.7432 21.3333 20.7581 21.3333 20.7738C21.3333 20.7895 21.3299 20.8045 21.3286 20.8199C21.3459 21.003 21.2681 21.1895 21.1057 21.301L18.7599 22.9083C18.6692 22.9704 18.5663 23 18.4642 23C18.2971 23 18.1329 22.9204 18.0318 22.7721C17.8681 22.5335 17.9288 22.2077 18.1674 22.044L19.2567 21.2976H5.07664L6.16591 22.044C6.4045 22.2077 6.46526 22.5335 6.30157 22.7721C6.20048 22.9204 6.03626 23 5.86917 23C5.76702 23 5.6641 22.9704 5.57348 22.9083L3.2276 21.301C3.06521 21.1895 2.98743 21.003 3.00471 20.8199C3.0034 20.8045 3 20.7895 3 20.7738C3 20.7581 3.0034 20.7432 3.00471 20.7277C2.98743 20.5446 3.06521 20.3582 3.2276 20.2466L5.57348 18.6393C5.8126 18.4759 6.13867 18.5366 6.30157 18.7755C6.46526 19.0141 6.4045 19.3399 6.16591 19.5036L5.07664 20.25H19.2567L18.1674 19.5036C17.9288 19.3399 17.8681 19.0141 18.0318 18.7755C18.1949 18.5366 18.5215 18.4759 18.7599 18.6393L21.1057 20.2466C21.2681 20.3582 21.3459 20.5446 21.3286 20.7277Z" fill="current"/>
</g>
<defs>
<clipPath id="clip0">
<rect width="19.25" height="22" fill="white" transform="translate(3 1)"/>
</clipPath>
</defs>
</svg>
