<svg width="24" height="24" viewBox="0 0 24 24" fill="none" xmlns="http://www.w3.org/2000/svg">
<g clip-path="url(#clip0)">
<path fill-rule="evenodd" clip-rule="evenodd" d="M16.95 2C15.036 2 13.199 2.891 12 4.299C10.801 2.891 8.964 2 7.05 2C3.662 2 1 4.662 1 8.05C1 12.208 4.74 15.596 10.405 20.744L12 22.185L13.595 20.733C19.26 15.596 23 12.208 23 8.05C23 4.662 20.338 2 16.95 2ZM12.11 19.105L12 19.215L11.89 19.105C6.654 14.364 3.2 11.229 3.2 8.05C3.2 5.85 4.85 4.2 7.05 4.2C8.744 4.2 10.394 5.289 10.977 6.796H13.034C13.606 5.289 15.256 4.2 16.95 4.2C19.15 4.2 20.8 5.85 20.8 8.05C20.8 11.229 17.346 14.364 12.11 19.105Z" fill="current"/>
</g>
<defs>
<clipPath id="clip0">
<rect width="22" height="20.1667" fill="white" transform="translate(1 2)"/>
</clipPath>
</defs>
</svg>
