<?xml version="1.0" encoding="UTF-8"?>
<svg width="16px" height="16px" viewBox="0 0 16 16" version="1.1" xmlns="http://www.w3.org/2000/svg" xmlns:xlink="http://www.w3.org/1999/xlink">
    <!-- Generator: Sketch 53.2 (72643) - https://sketchapp.com -->
    <title>icon/Kamar mandi</title>
    <desc>Created with Sketch.</desc>
    <g id="Page-1" stroke="none" stroke-width="1" fill="none" fill-rule="evenodd">
        <g id="test-FE" transform="translate(-1025.000000, -612.000000)">
            <g id="Component/Card/Image-Top/Big" transform="translate(913.000000, 243.000000)">
                <g id="Component/Card/Image-Top/Atomic">
                    <g id="Group-7-Copy" transform="translate(112.000000, 368.000000)">
                        <g id="icon/Kamar-mandi" transform="translate(0.000000, 1.000000)">
                            <g id="baseline-assessment-24px">
                                <polygon id="Shape" points="0 0 16 0 16 16 0 16"></polygon>
                                <path d="M14.9289428,7.6697854 L1.06298726,7.5273854 C0.866898371,7.52542984 0.709209482,7.36436318 0.711165038,7.16827429 C0.713120593,6.9721854 0.87418726,6.81431873 1.07027615,6.81627429 L14.9362317,6.95867429 C15.1323206,6.96080762 15.2901873,7.12187429 15.2882317,7.31796318 C15.2862761,7.51405207 15.1250317,7.67191873 14.9289428,7.6697854 L14.9289428,7.6697854 Z M14.5534761,9.62160762 C14.535165,11.3860521 12.8505428,12.8043632 10.7979206,12.7832076 L5.08840948,12.724541 C3.03560948,12.7033854 1.38049837,11.250941 1.39845393,9.48649651 L1.41125393,8.24222984 L14.5660984,8.37716318 L14.5534761,9.62160762 Z M13.450365,14.6399187 C13.4857428,14.7028521 13.4948095,14.7753854 13.4752539,14.8441854 C13.4562317,14.911741 13.411965,14.967741 13.3481428,15.0032965 C13.2868095,15.0383187 13.2153428,15.0472076 13.1472539,15.0283632 C13.0786317,15.0091632 13.0213873,14.9643632 12.9860095,14.9016076 L12.1012095,13.3337854 C12.2789873,13.2872076 12.4521428,13.2310298 12.6197873,13.1659632 L13.450365,14.6399187 Z M2.97569837,14.7990298 C2.93925393,14.8607187 2.88094282,14.9044521 2.81196504,14.9220521 C2.74369837,14.9396521 2.67240948,14.9291632 2.60929837,14.8918298 C2.54849837,14.8562743 2.50547615,14.7993854 2.48787615,14.7312965 C2.46974282,14.662141 2.4802317,14.5897854 2.5170317,14.5275632 L3.35525393,13.1083632 C3.52396504,13.1734298 3.69800948,13.2296076 3.87667615,13.2763632 L2.97569837,14.7990298 Z M2.32556504,5.76240762 C2.58832059,5.76525207 2.81676504,5.91067429 2.93765393,6.12436318 L1.70636504,6.11174095 C1.83169837,5.90054095 2.06298726,5.75974095 2.32556504,5.76240762 L2.32556504,5.76240762 Z M4.46440948,5.25111873 C4.85640948,5.25502984 5.17214282,5.57734095 5.1682317,5.96951873 C5.16752059,6.03085207 5.15952059,6.09040762 5.1442317,6.14711873 L3.76627615,6.13289651 C3.75205393,6.07582984 3.74529837,6.01627429 3.74600948,5.95494095 C3.75009837,5.56276318 4.07240948,5.24702984 4.46440948,5.25111873 L4.46440948,5.25111873 Z M11.5865428,3.19085207 L10.1852984,3.17645207 C10.2562317,2.70267429 10.6156984,2.64756318 10.8914317,2.65040762 C11.167165,2.65307429 11.525565,2.71565207 11.5865428,3.19085207 L11.5865428,3.19085207 Z M14.9435206,6.24756318 L14.410365,6.24222984 L14.4528539,2.09129651 C14.4585428,1.5417854 14.263165,1.02285207 13.9038761,0.631563177 C13.5397873,0.229785399 13.0476984,0.00560762154 12.5186317,9.65104289e-05 C11.4672539,-0.0105701562 10.5979206,0.864274288 10.5444095,1.96667429 C9.77232059,2.10320762 9.47489837,2.72222984 9.46245393,3.30925207 C9.45925393,3.46125207 9.51578726,3.60489651 9.62156504,3.71387429 C9.72734282,3.82320762 9.87009837,3.88436318 10.0229873,3.88596318 L11.7342761,3.9033854 C11.8873428,3.9049854 12.031165,3.84685207 12.1394317,3.73982984 C12.247165,3.6329854 12.3067206,3.49040762 12.3067206,3.33822984 C12.3060095,2.75245207 12.0222761,2.12845207 11.2562317,1.97485207 C11.303165,1.26427429 11.8510761,0.704452066 12.5113428,0.711207622 C12.8400539,0.714585399 13.1474317,0.855918733 13.3785428,1.11085207 C13.6165873,1.37022984 13.7456539,1.71582984 13.7417428,2.08400762 L13.6992539,6.23494095 L5.86618726,6.15440762 C5.87418726,6.09574095 5.8786317,6.03654095 5.87916504,5.97680762 C5.88734282,5.19262984 5.25587615,4.54800762 4.47169837,4.54000762 C3.90494282,4.53414095 3.41107615,4.86249651 3.1778317,5.34107429 C2.94280948,5.16222984 2.65036504,5.05467429 2.3330317,5.05147429 C1.66849837,5.04454095 1.1042317,5.4969854 0.942631705,6.11245207 C0.417298371,6.17342984 0.0057428157,6.61840762 5.392681e-05,7.1609854 C-0.00456829541,7.62445207 0.288409482,8.02302984 0.700853927,8.17396318 L0.687520593,9.47920762 C0.673298371,10.8651632 1.48218726,12.0932521 2.71098726,12.8008076 L1.90476504,14.1657854 C1.77107615,14.3919187 1.73356504,14.6562743 1.79934282,14.9097854 C1.86476504,15.1622298 2.02494282,15.3737854 2.24787615,15.5042743 C2.4722317,15.6377854 2.73498726,15.6758298 2.98814282,15.6111187 C3.24147615,15.5464076 3.45445393,15.3865854 3.58778726,15.1609854 L4.62369837,13.4104076 C4.77392059,13.4255187 4.9266317,13.4340521 5.08094282,13.4356521 L10.7906317,13.4943187 C10.9833428,13.4962743 11.1737428,13.4873854 11.3604095,13.4680076 L12.3666317,15.250941 C12.4955206,15.4792076 12.7049428,15.6434743 12.9568539,15.7135187 C13.0405873,15.7366298 13.1253873,15.748541 13.2098317,15.7494298 C13.3792539,15.7512076 13.5467206,15.7083632 13.696765,15.6232076 C13.9248539,15.4960965 14.0889428,15.2879187 14.1596984,15.0368965 C14.2306317,14.7846298 14.1989873,14.519741 14.0697428,14.2907632 L13.2626317,12.8578743 C14.4562317,12.1673854 15.2507206,10.9812521 15.2645873,9.62889651 L15.2779206,8.32365207 C15.6932095,8.18107429 15.9945428,7.78871873 15.9993428,7.32525207 C16.0053873,6.7369854 15.5317873,6.2537854 14.9435206,6.24756318 L14.9435206,6.24756318 Z" id="Fill-13" fill="#3E4246"></path>
                            </g>
                        </g>
                    </g>
                </g>
            </g>
        </g>
    </g>
</svg>