<?xml version="1.0" encoding="UTF-8"?>
<svg width="16px" height="16px" viewBox="0 0 16 16" version="1.1" xmlns="http://www.w3.org/2000/svg" xmlns:xlink="http://www.w3.org/1999/xlink">
    <!-- Generator: Sketch 53.2 (72643) - https://sketchapp.com -->
    <title>icon/Kamar Tidur</title>
    <desc>Created with Sketch.</desc>
    <g id="Page-1" stroke="none" stroke-width="1" fill="none" fill-rule="evenodd">
        <g id="test-FE" transform="translate(-929.000000, -612.000000)">
            <g id="Component/Card/Image-Top/Big" transform="translate(913.000000, 243.000000)">
                <g id="Component/Card/Image-Top/Atomic">
                    <g id="Group-7" transform="translate(16.000000, 368.000000)">
                        <g id="icon/Kamar-Tidur" transform="translate(0.000000, 1.000000)">
                            <g id="baseline-assessment-24px" stroke-width="1">
                                <polygon id="Shape" points="0 0 16 0 16 16 0 16"></polygon>
                            </g>
                            <path d="M0.711111111,12.8 L15.2888889,12.8 L15.2888889,11.3777778 L0.711111111,11.3777778 L0.711111111,12.8 Z M14.2222222,15.1703111 C14.2222222,15.2280889 14.2048,15.2693333 14.1912889,15.2888889 L13.7198222,15.2888889 C13.7063111,15.2693333 13.6888889,15.2280889 13.6888889,15.1703111 L13.6888889,13.5111111 L14.2222222,13.5111111 L14.2222222,15.1703111 Z M2.31111111,15.1703111 C2.31111111,15.2280889 2.29368889,15.2693333 2.28017778,15.2888889 L1.80871111,15.2888889 C1.7952,15.2693333 1.77777778,15.2280889 1.77777778,15.1703111 L1.77777778,13.5111111 L2.31111111,13.5111111 L2.31111111,15.1703111 Z M2.0416,8.7136 L2.06613333,8.71217778 C2.08764444,8.71093333 2.1104,8.71111111 2.13333333,8.71111111 L13.8666667,8.71111111 C13.8894222,8.71111111 13.9123556,8.71075556 13.9338667,8.71217778 L13.9617778,8.71395556 C14.6952889,8.75182222 15.2888889,9.2208 15.2888889,9.76728889 L15.2888889,10.6666667 L0.711111111,10.6666667 L0.711111111,9.76728889 C0.711111111,9.22062222 1.30488889,8.75164444 2.0416,8.7136 L2.0416,8.7136 Z M3.55555556,6.93333333 L3.55555556,6.4 C3.55555556,6.00782222 3.87448889,5.68888889 4.26666667,5.68888889 L6.04444444,5.68888889 C6.43662222,5.68888889 6.75555556,6.00782222 6.75555556,6.4 L6.75555556,6.93333333 C6.75555556,7.32551111 6.43662222,7.64444444 6.04444444,7.64444444 L4.26666667,7.64444444 C3.87448889,7.64444444 3.55555556,7.32551111 3.55555556,6.93333333 L3.55555556,6.93333333 Z M9.24444444,6.7232 L9.24444444,6.61013333 C9.24444444,6.10222222 9.65777778,5.68888889 10.1656889,5.68888889 L11.5232,5.68888889 C12.0311111,5.68888889 12.4444444,6.10222222 12.4444444,6.61013333 L12.4444444,6.7232 C12.4444444,7.23111111 12.0311111,7.64444444 11.5232,7.64444444 L10.1656889,7.64444444 C9.65777778,7.64444444 9.24444444,7.23111111 9.24444444,6.7232 L9.24444444,6.7232 Z M2.4,1.2768 C2.4,0.964977778 2.65386667,0.711111111 2.96568889,0.711111111 L13.0343111,0.711111111 C13.3461333,0.711111111 13.6,0.964977778 13.6,1.2768 L13.6,8 L12.5372444,8 C12.9134222,7.70062222 13.1555556,7.24 13.1555556,6.7232 L13.1555556,6.61013333 C13.1555556,5.71004444 12.4232889,4.97777778 11.5232,4.97777778 L10.1656889,4.97777778 C9.2656,4.97777778 8.53333333,5.71004444 8.53333333,6.61013333 L8.53333333,6.7232 C8.53333333,7.24 8.77546667,7.70062222 9.15164444,8 L6.98204444,8 C7.2784,7.7392 7.46666667,7.35822222 7.46666667,6.93333333 L7.46666667,6.4 C7.46666667,5.61582222 6.82862222,4.97777778 6.04444444,4.97777778 L4.26666667,4.97777778 C3.48248889,4.97777778 2.84444444,5.61582222 2.84444444,6.4 L2.84444444,6.93333333 C2.84444444,7.35822222 3.03271111,7.7392 3.32906667,8 L2.4,8 L2.4,1.2768 Z M14.3111111,8.04 L14.3111111,1.2768 C14.3111111,0.5728 13.7383111,0 13.0343111,0 L2.96568889,0 C2.26168889,0 1.68888889,0.5728 1.68888889,1.2768 L1.68888889,8.04017778 C0.718755556,8.21066667 0,8.92017778 0,9.76728889 L0,12.8732444 C0,13.2248889 0.318933333,13.5111111 0.711111111,13.5111111 L1.06666667,13.5111111 L1.06666667,15.1703111 C1.06666667,15.6279111 1.3856,16 1.77777778,16 L2.31111111,16 C2.70328889,16 3.02222222,15.6279111 3.02222222,15.1703111 L3.02222222,13.5111111 L12.9777778,13.5111111 L12.9777778,15.1703111 C12.9777778,15.6279111 13.2967111,16 13.6888889,16 L14.2222222,16 C14.6144,16 14.9333333,15.6279111 14.9333333,15.1703111 L14.9333333,13.5111111 L15.2888889,13.5111111 C15.6810667,13.5111111 16,13.2248889 16,12.8732444 L16,9.76728889 C16,8.91964444 15.28,8.2096 14.3111111,8.04 L14.3111111,8.04 Z" id="Fill-1" fill="#3E4246"></path>
                        </g>
                    </g>
                </g>
            </g>
        </g>
    </g>
</svg>