<?xml version="1.0" encoding="UTF-8"?>
<svg width="13px" height="16px" viewBox="0 0 13 16" version="1.1" xmlns="http://www.w3.org/2000/svg" xmlns:xlink="http://www.w3.org/1999/xlink">
    <!-- Generator: Sketch 53.2 (72643) - https://sketchapp.com -->
    <title>icon/Luas Bangunan</title>
    <desc>Created with Sketch.</desc>
    <g id="Page-1" stroke="none" stroke-width="1" fill="none" fill-rule="evenodd">
        <g id="test-FE" transform="translate(-1130.000000, -612.000000)">
            <g id="Component/Card/Image-Top/Big" transform="translate(913.000000, 243.000000)">
                <g id="Component/Card/Image-Top/Atomic">
                    <g id="Group-7-Copy-2" transform="translate(215.000000, 368.000000)">
                        <g id="icon/Luas-Bangunan" transform="translate(0.000000, 1.000000)">
                            <g id="baseline-assessment-24px">
                                <polygon id="Shape" points="0 0 16 0 16 16 0 16"></polygon>
                                <path d="M14.4444444,14.4571436 C14.4444444,14.4464769 14.4421333,14.4363436 14.4412444,14.4258547 C14.4529778,14.3015881 14.4001778,14.1750103 14.2899556,14.0992769 L12.6976,13.0082547 C12.5356444,12.8973214 12.3141333,12.9385658 12.2033778,13.1006992 C12.0922667,13.2626547 12.1335111,13.4838103 12.2954667,13.5949214 L13.0348444,14.1015881 L3.4096,14.1015881 L4.14897778,13.5949214 C4.31093333,13.4838103 4.35217778,13.2626547 4.24106667,13.1006992 C4.13048889,12.9385658 3.9088,12.8973214 3.74684444,13.0082547 L2.15448889,14.0992769 C2.04426667,14.1750103 1.99146667,14.3015881 2.0032,14.4258547 C2.00231111,14.4363436 2,14.4464769 2,14.4571436 C2,14.4678103 2.00231111,14.4779436 2.0032,14.4882547 C1.99146667,14.6126992 2.04426667,14.7392769 2.15448889,14.8150103 L3.74684444,15.9060325 C3.80835556,15.9481658 3.87822222,15.9682547 3.94755556,15.9682547 C4.06097778,15.9682547 4.17244444,15.9142103 4.24106667,15.8135881 C4.35217778,15.6516325 4.31093333,15.4304769 4.14897778,15.3193658 L3.4096,14.8126992 L13.0348444,14.8126992 L12.2954667,15.3193658 C12.1335111,15.4304769 12.0922667,15.6516325 12.2033778,15.8135881 C12.272,15.9142103 12.3834667,15.9682547 12.4968889,15.9682547 C12.5662222,15.9682547 12.6360889,15.9481658 12.6976,15.9060325 L14.2899556,14.8150103 C14.4001778,14.7392769 14.4529778,14.6126992 14.4412444,14.4882547 C14.4421333,14.4779436 14.4444444,14.4678103 14.4444444,14.4571436 L14.4444444,14.4571436 Z M8.22222222,6.10158806 C7.92817778,6.10158806 7.68888889,6.34087695 7.68888889,6.63492139 C7.68888889,6.92896584 7.92817778,7.16825473 8.22222222,7.16825473 C8.51626667,7.16825473 8.75555556,6.92896584 8.75555556,6.63492139 C8.75555556,6.34087695 8.51626667,6.10158806 8.22222222,6.10158806 L8.22222222,6.10158806 Z M8.22222222,7.87936584 C7.53617778,7.87936584 6.97777778,7.32114361 6.97777778,6.63492139 C6.97777778,5.94869917 7.53617778,5.39047695 8.22222222,5.39047695 C8.90826667,5.39047695 9.46666667,5.94869917 9.46666667,6.63492139 C9.46666667,7.32114361 8.90826667,7.87936584 8.22222222,7.87936584 L8.22222222,7.87936584 Z M3.44142222,4.05714361 L12.9880889,4.05714361 L8.48853333,0.812521392 C8.30062222,0.677054726 8.04853333,0.677765837 7.86115556,0.815188059 L3.44142222,4.05714361 Z M7.33333333,12.0571436 L9.11111111,12.0571436 L9.11111111,9.39047695 L7.33333333,9.39047695 L7.33333333,12.0571436 Z M9.82222222,12.0571436 L13.3777778,12.0571436 C13.5738667,12.0571436 13.7333333,11.8976769 13.7333333,11.7015881 L13.7333333,4.8676325 C13.7333333,4.8340325 13.7301333,4.80078806 13.7239111,4.76825473 L2.71964444,4.76825473 C2.71413333,4.79936584 2.71111111,4.83101028 2.71111111,4.86301028 L2.71111111,11.7015881 C2.71111111,11.8976769 2.87057778,12.0571436 3.06666667,12.0571436 L6.62222222,12.0571436 L6.62222222,9.39047695 C6.62222222,8.99829917 6.94115556,8.67936584 7.33333333,8.67936584 L9.11111111,8.67936584 C9.50328889,8.67936584 9.82222222,8.99829917 9.82222222,9.39047695 L9.82222222,12.0571436 Z M13.3777778,12.7682547 L3.06666667,12.7682547 C2.4784,12.7682547 2,12.2898547 2,11.7015881 L2,4.86301028 C2,4.46816584 2.19004444,4.09305473 2.50844444,3.8596325 L7.44071111,0.241676948 C7.87715556,-0.0783230523 8.4656,-0.0808119412 8.90453333,0.235810281 L13.928,3.85821028 C14.2513778,4.0916325 14.4444444,4.46887695 14.4444444,4.8676325 L14.4444444,11.7015881 C14.4444444,12.2898547 13.9660444,12.7682547 13.3777778,12.7682547 L13.3777778,12.7682547 Z" id="Fill-1" fill="#3E4246"></path>
                            </g>
                        </g>
                    </g>
                </g>
            </g>
        </g>
    </g>
</svg>