<?xml version="1.0" encoding="UTF-8"?>
<svg width="24px" height="22px" viewBox="0 0 24 22" version="1.1" xmlns="http://www.w3.org/2000/svg" xmlns:xlink="http://www.w3.org/1999/xlink">
    <!-- Generator: Sketch 53.2 (72643) - https://sketchapp.com -->
    <title>icon/love</title>
    <desc>Created with Sketch.</desc>
    <g id="Page-1" stroke="none" stroke-width="1" fill="none" fill-rule="evenodd">
        <g id="test-FE" transform="translate(-1259.000000, -528.000000)">
            <g id="Component/Card/Image-Top/Big" transform="translate(913.000000, 243.000000)">
                <g id="Component/Card/Image-Top/Atomic">
                    <g id="icon/love" transform="translate(346.000000, 285.000000)">
                        <g id="baseline-assessment-24px">
                            <polygon id="Shape" points="0 0 24 0 24 24 0 24"></polygon>
                            <path d="M17.4,-8.2600593e-14 C15.312,-8.2600593e-14 13.308,0.972 12,2.508 C10.692,0.972 8.688,-8.2600593e-14 6.6,-8.2600593e-14 C2.904,-8.2600593e-14 0,2.904 0,6.6 C0,11.136 4.08,14.832 10.26,20.448 L12,22.02 L13.74,20.436 C19.92,14.832 24,11.136 24,6.6 C24,2.904 21.096,-8.2600593e-14 17.4,-8.2600593e-14 Z M12.12,18.66 L12,18.78 L11.88,18.66 C6.168,13.488 2.4,10.068 2.4,6.6 C2.4,4.2 4.2,2.4 6.6,2.4 C8.448,2.4 10.248,3.588 10.884,5.232 L13.128,5.232 C13.752,3.588 15.552,2.4 17.4,2.4 C19.8,2.4 21.6,4.2 21.6,6.6 C21.6,10.068 17.832,13.488 12.12,18.66 Z" id="Shape" fill="#3E4246"></path>
                        </g>
                    </g>
                </g>
            </g>
        </g>
    </g>
</svg>