<?xml version="1.0" encoding="UTF-8"?>
<svg width="14px" height="16px" viewBox="0 0 14 16" version="1.1" xmlns="http://www.w3.org/2000/svg" xmlns:xlink="http://www.w3.org/1999/xlink">
    <!-- Generator: Sketch 53.2 (72643) - https://sketchapp.com -->
    <title>icon/Luas Tanah</title>
    <desc>Created with Sketch.</desc>
    <g id="Page-1" stroke="none" stroke-width="1" fill="none" fill-rule="evenodd">
        <g id="test-FE" transform="translate(-1204.000000, -612.000000)">
            <g id="Component/Card/Image-Top/Big" transform="translate(913.000000, 243.000000)">
                <g id="Component/Card/Image-Top/Atomic">
                    <g id="Group-7-Copy-3" transform="translate(290.000000, 368.000000)">
                        <g id="icon/Luas-Tanah" transform="translate(0.000000, 1.000000)">
                            <g id="baseline-assessment-24px" stroke-width="1">
                                <polygon id="Shape" points="0 0 16 0 16 16 0 16"></polygon>
                            </g>
                            <path d="M13.5714286,9.71428571 L13.5714286,6.66666667 L9.57142857,6.66666667 C8.7312381,6.66666667 8.04761905,7.35028571 8.04761905,8.19047619 L8.04761905,11.2380952 L12.047619,11.2380952 C12.8878095,11.2380952 13.5714286,10.5544762 13.5714286,9.71428571 L13.5714286,9.71428571 Z M7.28571429,11.2380952 L7.28571429,8.19047619 C7.28571429,6.93009524 8.31104762,5.9047619 9.57142857,5.9047619 L13.5714286,5.9047619 L13.5714286,2.28571429 C13.5714286,1.44552381 12.8878095,0.761904762 12.047619,0.761904762 L8.04761905,0.761904762 L8.04761905,4.38095238 C8.04761905,5.64133333 7.02228571,6.66666667 5.76190476,6.66666667 L1.76190476,6.66666667 L1.76190476,9.71428571 C1.76190476,10.5544762 2.44552381,11.2380952 3.28571429,11.2380952 L7.28571429,11.2380952 Z M1.76190476,2.28571429 L1.76190476,5.9047619 L5.76190476,5.9047619 C6.60209524,5.9047619 7.28571429,5.22114286 7.28571429,4.38095238 L7.28571429,0.761904762 L3.28571429,0.761904762 C2.44552381,0.761904762 1.76190476,1.44552381 1.76190476,2.28571429 L1.76190476,2.28571429 Z M14.3333333,2.28571429 L14.3333333,9.71428571 C14.3333333,10.9746667 13.308,12 12.047619,12 L3.28571429,12 C2.02533333,12 1,10.9746667 1,9.71428571 L1,2.28571429 C1,1.02533333 2.02533333,0 3.28571429,0 L12.047619,0 C13.308,0 14.3333333,1.02533333 14.3333333,2.28571429 L14.3333333,2.28571429 Z M14.3299048,14.3474286 C14.3308571,14.3586667 14.3333333,14.3695238 14.3333333,14.3809524 C14.3333333,14.392381 14.3308571,14.4032381 14.3299048,14.4144762 C14.3424762,14.547619 14.2859048,14.6832381 14.1678095,14.764381 L12.4617143,15.9333333 C12.3958095,15.9784762 12.3209524,16 12.2466667,16 C12.1251429,16 12.0057143,15.9420952 11.9321905,15.8342857 C11.8131429,15.6607619 11.8573333,15.4238095 12.0308571,15.3047619 L12.8230476,14.7619048 L2.51028571,14.7619048 L3.30247619,15.3047619 C3.476,15.4238095 3.52019048,15.6607619 3.40114286,15.8342857 C3.32761905,15.9420952 3.20819048,16 3.08666667,16 C3.01238095,16 2.93752381,15.9784762 2.87161905,15.9333333 L1.16552381,14.764381 C1.04742857,14.6832381 0.990857143,14.547619 1.00342857,14.4144762 C1.00247619,14.4032381 1,14.392381 1,14.3809524 C1,14.3695238 1.00247619,14.3586667 1.00342857,14.3474286 C0.990857143,14.2142857 1.04742857,14.0786667 1.16552381,13.9975238 L2.87161905,12.8285714 C3.04552381,12.7097143 3.28266667,12.7539048 3.40114286,12.927619 C3.52019048,13.1011429 3.476,13.3380952 3.30247619,13.4571429 L2.51028571,14 L12.8230476,14 L12.0308571,13.4571429 C11.8573333,13.3380952 11.8131429,13.1011429 11.9321905,12.927619 C12.0508571,12.7539048 12.288381,12.7097143 12.4617143,12.8285714 L14.1678095,13.9975238 C14.2859048,14.0786667 14.3424762,14.2142857 14.3299048,14.3474286 L14.3299048,14.3474286 Z" id="Fill-1" fill="#3E4246"></path>
                        </g>
                    </g>
                </g>
            </g>
        </g>
    </g>
</svg>